<svg width="37" height="37" viewBox="0 0 37 37" fill="none" xmlns="http://www.w3.org/2000/svg">
<g id="Adjust">
<path id="Vector" d="M12.8122 17.3551C15.3118 17.3551 17.3382 15.3287 17.3382 12.8291C17.3382 10.3295 15.3118 8.30322 12.8122 8.30322C10.3126 8.30322 8.28632 10.3295 8.28632 12.8291C8.28632 15.3287 10.3126 17.3551 12.8122 17.3551Z" stroke="black" stroke-width="3.10349"/>
<path id="Vector_2" d="M17.3382 12.8292H30.9159" stroke="black" stroke-width="3.10349"/>
<path id="Vector_3" d="M24.8814 20.3723C22.3818 20.3723 20.3555 22.3986 20.3555 24.8982C20.3555 27.3978 22.3818 29.4241 24.8814 29.4241C27.381 29.4241 29.4073 27.3978 29.4073 24.8982C29.4073 22.3986 27.381 20.3723 24.8814 20.3723Z" stroke="black" stroke-width="3.10349"/>
<path id="Vector_4" d="M20.3555 24.8982H6.77771" stroke="black" stroke-width="3.10349"/>
</g>
</svg>
