<svg width="82" height="82" viewBox="0 0 82 82" fill="none" xmlns="http://www.w3.org/2000/svg">
<circle cx="41" cy="41" r="38.5" fill="black" stroke="#276EF1" stroke-width="5"/>
<path d="M54.9378 26.9246C55.6117 26.325 56.5085 25.9935 57.439 26.0001C58.3695 26.0067 59.2609 26.3508 59.925 26.9598C60.5892 27.5689 60.9742 28.3952 60.9987 29.2645C61.0233 30.1337 60.6856 30.9779 60.0568 31.6189L40.9679 53.9283C40.6397 54.2587 40.2435 54.5238 39.8031 54.7079C39.3627 54.8919 38.8871 54.9911 38.4048 54.9994C37.9225 55.0078 37.4433 54.9251 36.9959 54.7565C36.5485 54.5878 36.1421 54.3365 35.801 54.0177L23.142 42.188C22.7895 41.881 22.5067 41.5108 22.3106 41.0995C22.1145 40.6882 22.0091 40.2442 22.0006 39.7939C21.9921 39.3437 22.0807 38.8965 22.2611 38.479C22.4416 38.0615 22.7102 37.6822 23.0509 37.3638C23.3917 37.0454 23.7975 36.7943 24.2443 36.6257C24.6911 36.4571 25.1697 36.3742 25.6514 36.3822C26.1332 36.3901 26.6084 36.4887 27.0485 36.6719C27.4886 36.8552 27.8848 37.1194 28.2133 37.4489L38.2314 46.8063L54.8469 27.0229C54.8768 26.9885 54.9087 26.9557 54.9425 26.9246H54.9378Z" fill="white"/>
</svg>
