<svg width="24" height="22" viewBox="0 0 24 22" fill="none" xmlns="http://www.w3.org/2000/svg">
<g clip-path="url(#clip0_705_1816)">
<path d="M23.8037 10.4423C21.6109 6.401 17.2699 3.66666 12.2993 3.66666C7.32876 3.66666 2.98652 6.40291 0.794986 10.4427C0.702489 10.6156 0.654297 10.8065 0.654297 11.0002C0.654297 11.1938 0.702489 11.3848 0.794986 11.5576C2.98774 15.599 7.32876 18.3333 12.2993 18.3333C17.2699 18.3333 21.6122 15.5971 23.8037 11.5572C23.8962 11.3844 23.9444 11.1935 23.9444 10.9998C23.9444 10.8061 23.8962 10.6152 23.8037 10.4423V10.4423ZM12.2993 16.5C11.1478 16.5 10.022 16.1774 9.06451 15.5731C8.107 14.9687 7.36072 14.1097 6.92002 13.1047C6.47933 12.0998 6.36402 10.9939 6.58869 9.92699C6.81335 8.8601 7.36789 7.88009 8.18219 7.1109C8.99648 6.34171 10.034 5.81789 11.1634 5.60567C12.2929 5.39345 13.4636 5.50237 14.5275 5.91865C15.5915 6.33493 16.5008 7.03988 17.1406 7.94435C17.7804 8.84882 18.1219 9.91219 18.1219 11C18.1222 11.7224 17.9719 12.4377 17.6794 13.1052C17.3869 13.7726 16.9581 14.3791 16.4173 14.8899C15.8766 15.4007 15.2346 15.8058 14.528 16.082C13.8214 16.3583 13.0641 16.5003 12.2993 16.5V16.5ZM12.2993 7.33332C11.9529 7.3379 11.6086 7.38659 11.2759 7.47808C11.5502 7.83011 11.6818 8.26331 11.6469 8.69913C11.612 9.13496 11.4129 9.54453 11.0857 9.85358C10.7585 10.1626 10.3249 10.3507 9.86356 10.3837C9.40218 10.4166 8.94357 10.2923 8.5709 10.0333C8.35869 10.7718 8.39699 11.5546 8.68043 12.2715C8.96386 12.9884 9.47815 13.6032 10.1509 14.0296C10.8237 14.4559 11.621 14.6722 12.4307 14.648C13.2405 14.6239 14.0218 14.3604 14.6647 13.8949C15.3076 13.4293 15.7798 12.785 16.0148 12.0526C16.2497 11.3203 16.2357 10.5368 15.9745 9.81236C15.7134 9.08796 15.2183 8.45916 14.5591 8.01445C13.8998 7.56974 13.1095 7.33152 12.2993 7.33332V7.33332Z" fill="black"/>
</g>
<defs>
<clipPath id="clip0_705_1816">
<rect width="23.2901" height="22" fill="white" transform="translate(0.654297)"/>
</clipPath>
</defs>
</svg>
