<svg width="18" height="19" viewBox="0 0 18 19" fill="none" xmlns="http://www.w3.org/2000/svg">
<g id="Gift Icon">
<path id="Vector" fill-rule="evenodd" clip-rule="evenodd" d="M5.87499 1.84935e-06C6.57499 1.84935e-06 7.21699 0.267002 7.69999 0.708002L8.99999 1.892L10.3 0.708002C10.7982 0.251855 11.4495 -0.000788628 12.125 1.84935e-06C12.8429 0.00132267 13.531 0.287021 14.0387 0.794555C14.5465 1.30209 14.8324 1.99011 14.834 2.708C14.8327 3.22468 14.6854 3.73047 14.409 4.167H17.334V10H10.25V4.167H7.74999V10H0.666992V4.167H3.59199C3.3156 3.73047 3.16826 3.22468 3.16699 2.708C3.16858 1.99028 3.45439 1.30241 3.9619 0.794907C4.4694 0.287402 5.15727 0.00158681 5.87499 1.84935e-06ZM7.74999 12.5H0.666992V18.333H7.74999V12.5ZM10.25 18.333H17.334V12.5H10.25V18.333Z" fill="black"/>
</g>
</svg>
