<svg width="26" height="26" viewBox="0 0 26 26" fill="none" xmlns="http://www.w3.org/2000/svg">
<g id="Heart-o">
<path id="Vector" d="M16.9846 5.74667C19.5708 5.74667 21.1226 7.71222 21.1226 10.0916C21.1226 11.333 20.5019 12.4709 19.7777 13.2985C18.5363 14.5399 12.8466 19.1951 12.8466 19.1951C12.8466 19.1951 7.15689 14.5399 5.91549 13.2985C5.0879 12.4709 4.57065 11.333 4.57065 10.0916C4.57065 7.71222 6.12239 5.74667 8.70863 5.74667C10.4673 5.74667 12.1225 7.40187 12.8466 8.85016C13.5708 7.40187 15.226 5.74667 16.9846 5.74667ZM16.9846 2.64319C15.4329 2.64319 13.9846 3.26389 12.8466 4.09148C11.7087 3.16044 10.2604 2.64319 8.70863 2.64319C4.57065 2.64319 1.46716 5.85012 1.46716 10.0916C1.46716 12.0571 2.29476 13.9192 3.74305 15.4709C5.19135 17.0227 12.8466 23.2296 12.8466 23.2296C12.8466 23.2296 20.5019 17.0227 21.9502 15.4709C23.3985 13.9192 24.2261 12.0571 24.2261 10.0916C24.2261 5.85012 21.1226 2.64319 16.9846 2.64319Z" fill="white"/>
</g>
</svg>
