<svg width="117" height="88" viewBox="0 0 117 88" fill="none" xmlns="http://www.w3.org/2000/svg">
<path d="M15.8889 35.4504C21.4603 35.4504 25.5873 31.3041 25.5873 24.8775V0H31.7778V40.2186H25.5873V36.4869C24.2422 37.8656 22.6369 38.9608 20.8653 39.7083C19.0936 40.4559 17.1914 40.8408 15.2698 40.8405C6.60317 40.8405 0 34.6211 0 25.0848V0.207312H6.19048V24.8775C6.19048 31.0968 10.3175 35.4504 15.8889 35.4504ZM36.1111 40.2186H41.6825V36.4869C43.7896 38.6358 46.4878 40.103 49.4307 40.7003C52.3737 41.2976 55.4272 40.9977 58.1993 39.8392C60.9714 38.6806 63.3357 36.7162 64.9886 34.198C66.6416 31.6799 67.5078 28.723 67.4762 25.7067C67.4762 17.2069 60.873 10.3656 52.4127 10.3656C50.5056 10.3382 48.6121 10.6904 46.8412 11.4021C45.0704 12.1137 43.4574 13.1706 42.0952 14.5119V0H36.3175V40.2186H36.1111ZM51.7937 35.6577C49.112 35.6577 46.5402 34.5874 44.644 32.6824C42.7478 30.7773 41.6825 28.1935 41.6825 25.4994C41.476 24.0579 41.5803 22.5887 41.9886 21.1913C42.3968 19.7939 43.0993 18.501 44.0484 17.4003C44.9976 16.2996 46.1712 15.4168 47.4898 14.8118C48.8083 14.2068 50.2409 13.8936 51.6905 13.8936C53.14 13.8936 54.5727 14.2068 55.8912 14.8118C57.2097 15.4168 58.3834 16.2996 59.3325 17.4003C60.2817 18.501 60.9842 19.7939 61.3924 21.1913C61.8006 22.5887 61.905 24.0579 61.6984 25.4994C61.6984 31.3041 57.1587 35.865 51.7937 35.865V35.6577ZM84.8095 10.3656C82.8237 10.3377 80.8524 10.7101 79.0123 11.4607C77.1721 12.2114 75.5005 13.3251 74.0961 14.736C72.6918 16.1469 71.5833 17.8264 70.8361 19.6751C70.0889 21.5238 69.7183 23.5043 69.746 25.4994C69.746 34.2065 76.3492 40.8405 85.2222 40.8405C90.381 40.8405 94.7143 38.3527 97.6032 34.6211L93.4762 31.5114C91.4127 34.4138 88.5238 35.6577 85.2222 35.6577C82.8818 35.6839 80.6109 34.8589 78.8284 33.3348C77.046 31.8108 75.8723 29.6905 75.5238 27.3652H99.254V25.4994C99.254 16.7923 93.0635 10.3656 84.8095 10.3656ZM75.7302 22.8043C76.1142 20.7176 77.2103 18.8307 78.8298 17.4685C80.4494 16.1063 82.491 15.354 84.6032 15.3411C88.7302 15.3411 92.4445 18.4508 93.2698 22.8043H75.7302ZM117 16.1703V10.7802H114.937C111.841 10.7802 109.571 12.2314 108.127 14.5119V10.9875H102.349V40.0112H108.127V23.4263C108.127 19.0727 110.81 16.1703 114.524 16.1703H117Z" fill="white"/>
<path d="M2.47523 48.5857H29.3637V55.0286H9.64548V64.4H28.9653V70.6476H9.44631V80.0191H29.3637V86.4619H2.27606V48.5857H2.47523ZM103.058 87.0476C111.224 87.0476 116.004 83.1429 116.004 77.8714C116.004 73.9667 113.216 71.2333 107.44 70.0619L101.265 68.6952C97.6802 68.1095 96.6843 67.5238 96.6843 66.1572C96.6843 64.5952 98.2777 63.4238 101.464 63.4238C104.85 63.4238 107.44 64.4 108.037 67.3286H115.207C115.008 61.6667 110.626 57.7619 101.863 57.7619C94.4934 57.7619 89.1157 60.8857 89.1157 66.7429C89.1157 70.6476 92.1033 73.381 98.2777 74.5524L105.05 76.3095C107.838 76.7 108.635 77.481 108.635 78.6524C108.635 80.4095 106.643 81.3857 103.257 81.3857C99.2736 81.3857 96.6843 80.6048 95.8876 77.481H88.5182C89.5141 83.3381 94.0951 87.2429 103.058 87.2429V87.0476ZM86.5265 80.0191H81.1488C79.5554 80.0191 78.5595 79.4333 78.5595 77.8714V64.7905H86.5265V58.5429H78.5595V50.7333H71.1901V58.5429H65.8124V64.7905H71.1901V79.6286C71.1901 83.5333 73.9785 86.4619 78.7587 86.4619H86.7257V80.0191H86.5265ZM62.6256 58.5429V86.4619H55.6546V83.9238C53.4584 85.6509 50.809 86.7345 48.0118 87.0495C45.2147 87.3646 42.3836 86.8983 39.845 85.7044C37.3065 84.5106 35.1638 82.6378 33.6641 80.3019C32.1644 77.9661 31.3686 75.2623 31.3686 72.5024C31.3686 69.7424 32.1644 67.0387 33.6641 64.7028C35.1638 62.367 37.3065 60.4942 39.845 59.3003C42.3836 58.1065 45.2147 57.6402 48.0118 57.9552C50.809 58.2703 53.4584 59.3538 55.6546 61.081V58.5429H62.8248H62.6256ZM55.6546 72.4048C55.6546 67.7191 51.8703 64.0095 47.0901 64.0095C42.3099 64.0095 38.5256 67.7191 38.5256 72.4048C38.5256 74.6313 39.428 76.7667 41.0341 78.3411C42.6403 79.9155 44.8187 80.8 47.0901 80.8C49.3615 80.8 51.54 79.9155 53.1461 78.3411C54.7522 76.7667 55.6546 74.6313 55.6546 72.4048Z" fill="#06C167"/>
</svg>
