<svg width="24" height="5" viewBox="0 0 24 5" fill="none" xmlns="http://www.w3.org/2000/svg">
<g id="Menu">
<path id="Union" fill-rule="evenodd" clip-rule="evenodd" d="M5 2.5C5 3.88071 3.88071 5 2.5 5C1.11929 5 0 3.88071 0 2.5C0 1.11929 1.11929 0 2.5 0C3.88071 0 5 1.11929 5 2.5ZM14.5 2.5C14.5 3.88071 13.3807 5 12 5C10.6193 5 9.5 3.88071 9.5 2.5C9.5 1.11929 10.6193 0 12 0C13.3807 0 14.5 1.11929 14.5 2.5ZM21.5 5C22.8807 5 24 3.88071 24 2.5C24 1.11929 22.8807 0 21.5 0C20.1193 0 19 1.11929 19 2.5C19 3.88071 20.1193 5 21.5 5Z" fill="black"/>
</g>
</svg>
