<svg width="27" height="24" viewBox="0 0 27 24" fill="none" xmlns="http://www.w3.org/2000/svg">
<g id="Search">
<path id="Vector" d="M22.9776 19L18.998 15.3333C19.9929 14 20.6259 12.4167 20.6259 10.6667C20.6259 6.33336 16.7367 2.75 12.0334 2.75C7.33018 2.75 3.44095 6.33336 3.44095 10.6667C3.44095 15 7.33018 18.5834 12.0334 18.5834C13.9328 18.5834 15.6514 18 17.0986 17.0833L21.0782 20.75L22.9776 19ZM6.15436 10.75C6.15436 7.75001 8.77733 5.33334 12.0334 5.33334C15.2895 5.33334 17.9125 7.75001 17.9125 10.75C17.9125 13.75 15.2895 16.1667 12.0334 16.1667C8.77733 16.1667 6.15436 13.75 6.15436 10.75V10.75Z" fill="black"/>
</g>
</svg>
